<?xml version="1.0" encoding="UTF-8" standalone="no"?>
<!DOCTYPE svg PUBLIC "-//W3C//DTD SVG 1.1//EN" "http://www.w3.org/Graphics/SVG/1.1/DTD/svg11.dtd">
<svg version="1.1" xmlns="http://www.w3.org/2000/svg" xmlns:xlink="http://www.w3.org/1999/xlink" preserveAspectRatio="xMidYMid meet" viewBox="34.03847577293371 49.39745962155612 229.9615242270663 204.6125588936924" width="201.96" height="176.61"><defs><path d="M201.96 210C218.53 181.3 208.7 144.61 180 128.04C151.3 111.47 114.61 121.3 98.04 150C94.71 155.77 78.04 184.64 48.04 236.6" id="d4ncxEDzG"></path><path d="M98.04 210C114.61 238.7 151.3 248.53 180 231.96C208.7 215.39 218.53 178.7 201.96 150C198.63 144.23 181.96 115.36 151.96 63.4" id="f1somzrgnI"></path><path d="M150 120C116.86 120 90 146.86 90 180C90 213.14 116.86 240 150 240C156.67 240 190 240 250 240" id="c48DLyKO4"></path></defs><g><g><use xlink:href="#d4ncxEDzG" opacity="1" fill="#000000" fill-opacity="0"></use><g><use xlink:href="#d4ncxEDzG" opacity="1" fill-opacity="0" stroke="#c5c5c5" stroke-width="28" stroke-opacity="1"></use></g></g><g><use xlink:href="#f1somzrgnI" opacity="1" fill="#000000" fill-opacity="0"></use><g><use xlink:href="#f1somzrgnI" opacity="1" fill-opacity="0" stroke="#c5c5c5" stroke-width="28" stroke-opacity="1"></use></g></g><g><use xlink:href="#c48DLyKO4" opacity="1" fill="#000000" fill-opacity="0"></use><g><use xlink:href="#c48DLyKO4" opacity="1" fill-opacity="0" stroke="#c5c5c5" stroke-width="28" stroke-opacity="1"></use></g></g></g></svg>