<?xml version="1.0" encoding="UTF-8" standalone="no"?>
<!DOCTYPE svg PUBLIC "-//W3C//DTD SVG 1.1//EN" "http://www.w3.org/Graphics/SVG/1.1/DTD/svg11.dtd">
<svg version="1.1" xmlns="http://www.w3.org/2000/svg" xmlns:xlink="http://www.w3.org/1999/xlink" preserveAspectRatio="xMidYMid meet" viewBox="-0.35852893933008545 -1.9555432964086208 201.71836896125023 179.9133089832799" width="173.72" height="151.91"><defs><path d="M101.34 60.73C72.84 60.73 49.73 83.83 49.73 112.34C49.73 140.85 72.84 163.95 101.34 163.95C107.08 163.95 135.75 163.95 187.36 163.95" id="a3WkaIJ28B"></path><path d="M56.65 138.14C70.9 162.83 102.46 171.29 127.15 157.03C151.84 142.78 160.29 111.22 146.04 86.53C143.17 81.57 128.83 56.74 103.03 12.04" id="diBgf7VwO"></path><path d="M146.04 138.14C160.29 113.46 151.84 81.9 127.15 67.65C102.46 53.39 70.9 61.85 56.65 86.53C53.79 91.5 39.45 116.33 13.64 161.02" id="fbBDLZvRO"></path></defs><g><g><use xlink:href="#a3WkaIJ28B" opacity="1" fill="#000000" fill-opacity="0"></use><g><use xlink:href="#a3WkaIJ28B" opacity="1" fill-opacity="0" stroke="#656565" stroke-width="28" stroke-opacity="1"></use></g></g><g><use xlink:href="#diBgf7VwO" opacity="1" fill="#000000" fill-opacity="0"></use><g><use xlink:href="#diBgf7VwO" opacity="1" fill-opacity="0" stroke="#656565" stroke-width="28" stroke-opacity="1"></use></g></g><g><use xlink:href="#fbBDLZvRO" opacity="1" fill="#000000" fill-opacity="0"></use><g><use xlink:href="#fbBDLZvRO" opacity="1" fill-opacity="0" stroke="#656565" stroke-width="28" stroke-opacity="1"></use></g></g></g></svg>